<?xml version="1.0" standalone="no"?>
<!DOCTYPE svg PUBLIC "-//W3C//DTD SVG 20010904//EN"
 "http://www.w3.org/TR/2001/REC-SVG-20010904/DTD/svg10.dtd">
<svg version="1.0" xmlns="http://www.w3.org/2000/svg"
 width="820.000000pt" height="446.000000pt" viewBox="0 0 820.000000 446.000000"
 preserveAspectRatio="xMidYMid meet">

<g transform="translate(0.000000,446.000000) scale(0.100000,-0.100000)"
fill="#000000" stroke="none">
<path d="M3870 3998 c-63 -4 -127 -9 -143 -12 -40 -8 -142 -61 -225 -117 -40
-27 -78 -49 -84 -49 -31 0 -290 -86 -359 -120 -85 -41 -95 -51 -236 -239 -40
-53 -78 -112 -84 -131 -6 -19 -17 -42 -24 -50 -20 -24 -64 -186 -81 -300 -8
-58 -23 -141 -34 -185 -22 -96 -47 -238 -56 -320 -10 -88 -5 -153 22 -320 13
-82 27 -181 30 -220 3 -38 10 -78 16 -88 5 -10 12 -87 14 -170 3 -84 6 -171 8
-195 3 -40 2 -42 -25 -42 -15 0 -31 -5 -35 -11 -15 -25 237 29 331 70 68 30
93 33 98 14 3 -13 6 -9 12 12 9 34 33 65 50 65 6 0 17 -17 24 -37 14 -37 14
-37 -25 -70 -57 -49 -171 -100 -286 -128 -56 -14 -104 -28 -107 -32 -3 -3 5
-3 19 1 14 3 59 13 100 22 118 25 255 91 297 142 7 9 16 13 19 9 19 -18 -111
-107 -216 -149 -98 -38 -280 -90 -296 -84 -25 10 -15 23 27 35 23 7 39 14 37
17 -3 2 -23 -2 -46 -10 -38 -14 -42 -13 -51 2 -16 27 -12 4 4 -29 9 -16 29
-42 45 -58 82 -78 95 -128 49 -192 -12 -17 -19 -33 -16 -35 3 -3 11 5 18 17 7
13 18 30 26 37 22 22 15 68 -18 117 -26 39 -29 48 -18 61 12 14 15 12 26 -17
l13 -34 -5 37 c-6 36 -4 38 32 53 68 28 83 30 83 6 0 -24 54 -213 75 -265 17
-40 31 -49 21 -14 -4 13 -8 91 -10 173 -2 83 -2 137 1 120 2 -16 9 -34 15 -40
7 -7 9 3 4 32 -3 24 -2 44 4 48 6 4 10 -15 10 -49 0 -30 -5 -56 -11 -58 -7 -2
-7 -19 -1 -53 l8 -50 8 83 c5 45 12 85 17 88 5 3 6 16 3 30 -4 14 -2 24 5 24
6 0 11 -8 11 -18 0 -10 6 -24 13 -31 10 -11 9 -13 -5 -8 -10 4 -18 3 -18 -2 0
-9 159 -201 166 -201 3 0 -6 15 -21 33 -71 87 -78 99 -83 142 -3 29 -9 45 -18
45 -8 0 -14 4 -14 10 0 5 6 7 13 4 7 -2 13 3 14 13 3 41 24 72 67 101 25 17
46 27 46 22 0 -6 -4 -10 -9 -10 -5 0 -8 -12 -8 -27 0 -16 2 -22 4 -15 3 6 9
10 13 7 5 -3 7 -12 3 -21 -3 -8 2 -23 12 -34 9 -10 14 -23 11 -29 -4 -6 2 -31
14 -55 11 -25 20 -50 20 -55 0 -6 5 -11 11 -11 5 0 7 -4 4 -10 -3 -5 1 -10 9
-10 9 0 16 -4 16 -10 0 -5 -4 -10 -10 -10 -21 0 -8 -39 45 -132 30 -53 55
-101 55 -106 0 -6 3 -12 8 -14 22 -10 102 -110 96 -121 -4 -6 -4 -9 0 -5 5 4
17 -2 29 -12 33 -32 33 -13 0 23 -44 47 -147 187 -141 192 3 3 27 -14 54 -37
l49 -43 -37 45 c-42 52 -69 96 -100 163 -12 26 -25 47 -30 47 -4 0 -8 9 -8 21
0 11 -4 17 -10 14 -5 -3 -10 1 -10 9 0 9 -3 16 -8 16 -14 0 -35 76 -39 147 -4
65 -3 73 16 83 16 8 21 8 21 -2 0 -6 7 -3 16 8 14 18 15 18 8 -5 -5 -20 -3
-23 10 -18 11 4 19 0 23 -11 4 -9 14 -23 22 -30 22 -18 -2 -6 -48 25 -19 13
-41 23 -50 23 -20 -1 30 -45 109 -97 30 -20 57 -41 58 -45 2 -4 7 -6 12 -3 5
3 17 -5 27 -17 10 -13 23 -23 28 -23 20 0 85 -38 79 -46 -3 -5 1 -9 9 -9 8 0
48 -33 88 -74 103 -104 119 -124 106 -129 -7 -3 2 -10 18 -16 30 -12 115 -88
115 -103 0 -19 -49 -5 -114 34 -43 24 -106 77 -159 130 -48 48 -89 88 -92 88
-24 0 27 -60 204 -242 58 -60 101 -108 97 -108 -16 0 -139 61 -181 90 -24 16
-78 65 -119 107 -83 84 -101 92 -33 15 85 -99 125 -155 120 -170 -3 -6 -9 -10
-14 -6 -5 3 -9 2 -9 -1 0 -10 43 -44 55 -44 6 -1 -1 8 -15 19 -14 11 -20 20
-13 20 7 0 18 -7 25 -16 7 -8 30 -34 51 -56 20 -22 37 -45 37 -51 0 -6 3 -7 6
-4 4 4 1 14 -7 23 -13 16 -12 17 11 11 14 -4 32 -7 41 -7 12 0 20 -17 30 -61
7 -33 15 -56 17 -50 2 7 -2 34 -8 62 -12 47 -7 76 8 53 45 -71 131 -162 161
-172 28 -10 27 -7 -25 65 -30 41 -54 80 -54 86 0 6 19 -7 43 -30 54 -52 146
-123 159 -123 5 0 22 -9 36 -21 l27 -21 12 29 c7 15 12 53 13 84 0 31 2 58 5
61 3 2 37 -1 77 -7 40 -7 118 -18 174 -25 l101 -13 36 -73 c39 -78 53 -87 95
-58 26 18 27 44 8 124 l-13 56 104 89 c58 49 112 99 120 112 21 31 27 29 42
-13 7 -19 15 -33 18 -30 3 2 -1 22 -8 43 -14 38 -19 143 -8 143 9 0 29 -49 29
-72 0 -12 19 -60 41 -107 36 -75 57 -106 129 -191 8 -10 25 -21 37 -25 16 -4
5 11 -35 52 -33 33 -72 85 -90 121 l-31 64 25 49 c13 28 22 54 19 59 -4 6 -2
10 3 10 14 0 50 97 76 205 28 115 33 84 13 -72 -10 -70 -10 -96 -1 -108 10
-13 19 5 54 102 47 134 71 220 72 263 2 55 18 30 18 -27 1 -138 10 -190 30
-178 5 3 7 -8 5 -25 -3 -24 1 -33 18 -41 l22 -10 -22 5 c-14 2 -24 -2 -27 -13
-2 -9 -3 3 -1 27 3 30 0 42 -9 42 -10 0 -15 -25 -18 -93 -3 -59 -11 -103 -21
-122 -18 -32 -22 -80 -8 -89 23 -15 125 239 155 389 8 39 17 81 21 95 3 14 6
68 7 120 l2 95 12 -65 c6 -36 12 -53 13 -39 0 15 -3 50 -9 79 -8 44 -6 64 11
124 12 39 31 80 42 91 12 11 15 13 8 3 -10 -14 -9 -22 4 -45 16 -26 16 -27 0
-8 -16 19 -16 19 -10 -10 5 -23 4 -26 -4 -15 -14 20 -14 6 -1 -75 12 -75 14
-179 4 -268 -8 -77 -24 -99 -25 -35 0 24 -4 63 -8 88 -6 34 -8 24 -5 -45 1
-49 3 -142 5 -205 1 -63 3 -104 5 -90 12 76 28 139 34 135 4 -3 7 1 7 8 -1 6
2 42 6 80 10 76 26 93 19 19 -7 -81 7 -41 18 53 19 164 17 332 -6 468 -4 23
-7 58 -6 77 1 37 39 220 47 228 2 2 27 5 54 6 34 1 52 -3 56 -12 3 -8 5 -59 5
-115 1 -91 2 -99 14 -77 7 14 17 65 20 115 4 49 9 91 11 93 1 2 49 12 106 22
57 10 112 22 122 25 19 8 24 -14 7 -31 -25 -25 29 -145 64 -144 6 0 1 8 -10
18 -27 21 -44 54 -44 83 0 12 20 64 44 115 48 101 64 154 47 154 -6 0 -11 -10
-11 -22 -1 -41 -37 -107 -62 -113 -13 -3 -50 -12 -83 -20 l-60 -15 68 5 c37 3
67 2 67 -3 0 -9 -121 -36 -210 -47 -159 -20 -299 -17 -285 5 3 5 18 7 33 4 15
-2 54 -1 87 4 l60 10 -89 1 c-86 1 -88 1 -82 24 3 12 6 27 6 33 0 6 28 14 66
18 36 4 139 25 227 48 149 38 202 58 267 100 39 26 244 55 464 67 110 6 202
14 205 18 6 5 -185 -1 -389 -13 -110 -7 -268 -39 -290 -59 -8 -8 -54 -26 -100
-40 -47 -15 -118 -37 -158 -50 -53 -18 -74 -21 -77 -12 -2 6 -6 50 -9 97 -3
47 -10 106 -16 132 -13 66 -41 171 -47 182 -3 5 -26 67 -50 138 -46 137 -90
238 -103 238 -4 0 -29 42 -55 93 -27 50 -60 110 -75 132 -87 131 -135 201
-140 205 -3 3 -27 32 -52 65 -63 80 -164 183 -219 221 -131 93 -343 159 -549
170 -58 3 -125 12 -150 18 -25 7 -92 14 -150 15 -58 2 -107 4 -110 5 -3 1 -57
-1 -120 -6z m316 -19 c8 -6 29 -15 47 -19 l32 -8 -30 -1 c-17 -1 -37 5 -44 12
-11 10 -13 9 -8 -5 4 -12 1 -18 -9 -18 -9 0 -12 5 -8 12 5 8 2 9 -12 4 -10 -4
-31 -10 -46 -13 -15 -3 -25 -9 -22 -14 3 -5 -6 -9 -19 -9 -30 0 -138 -37 -152
-51 -13 -15 13 -10 370 61 50 10 115 17 145 15 67 -4 242 -40 272 -56 11 -6
36 -13 54 -14 68 -7 274 -155 274 -197 0 -19 24 -41 34 -31 4 4 4 -1 0 -11 -5
-13 -4 -17 3 -13 6 4 14 0 17 -9 4 -10 2 -13 -6 -8 -7 4 -2 -10 11 -32 13 -21
30 -50 37 -62 11 -22 13 -22 17 -5 3 11 5 7 6 -12 1 -16 6 -37 12 -45 9 -13
10 -12 5 3 -3 10 -2 16 3 13 5 -3 11 -15 14 -26 3 -11 1 -18 -4 -14 -18 11 -8
-19 32 -92 31 -56 44 -72 51 -62 6 9 7 5 3 -10 -5 -17 0 -31 17 -49 12 -15 18
-23 12 -20 -7 4 -15 0 -18 -9 -3 -8 -10 -13 -15 -10 -5 4 -11 1 -13 -6 -3 -7
-7 -5 -11 6 -4 10 -3 15 3 11 15 -9 12 11 -4 24 -10 8 -16 9 -19 1 -3 -6 -4
-5 -3 2 5 19 -13 50 -25 43 -5 -4 -8 -3 -7 2 2 4 -1 9 -5 10 -16 2 -67 57 -67
70 0 8 -4 11 -10 8 -5 -3 -10 0 -11 7 0 7 -56 64 -122 126 -116 107 -171 151
-209 165 -29 10 -9 -22 23 -39 16 -8 29 -19 29 -24 0 -6 6 -9 13 -7 6 1 11 -4
10 -10 -2 -7 2 -12 9 -10 7 1 12 -3 13 -10 0 -14 13 -28 28 -28 5 0 18 -13 26
-29 9 -16 21 -29 26 -29 18 -2 53 -42 44 -51 -5 -5 -32 11 -64 39 -31 26 -58
45 -61 43 -2 -3 39 -42 93 -88 90 -78 196 -184 252 -251 13 -16 29 -29 36 -29
6 0 18 -11 25 -25 7 -14 19 -25 26 -25 6 0 14 -9 17 -21 4 -13 10 -18 18 -13
8 4 10 3 5 -5 -4 -6 1 -23 12 -39 53 -76 144 -338 122 -352 -4 -3 -11 -50 -14
-105 -4 -55 -21 -166 -37 -248 -16 -81 -29 -150 -29 -153 0 -3 -4 -3 -9 1 -5
3 -21 -20 -35 -51 -28 -61 -30 -68 -18 -60 4 2 14 0 22 -5 11 -7 8 -8 -11 -5
-21 3 -29 -1 -38 -20 -6 -15 -7 -24 -1 -24 6 0 10 -4 10 -10 0 -5 -7 -7 -16
-3 -12 4 -15 2 -12 -8 3 -8 -2 -19 -10 -25 -12 -9 -12 -15 -2 -33 10 -19 9
-26 -4 -37 -9 -8 -11 -9 -6 -2 14 16 13 31 -2 22 -7 -4 -8 -3 -4 4 4 7 2 12
-3 12 -6 0 -11 -6 -11 -13 0 -7 -9 -30 -20 -52 -12 -22 -14 -31 -5 -21 8 11
15 15 15 9 0 -15 -25 -34 -35 -25 -5 4 -5 -1 -2 -10 3 -10 1 -20 -5 -24 -7 -5
-8 -2 -3 6 5 9 4 11 -4 6 -6 -4 -9 -12 -5 -17 3 -5 -6 -23 -20 -40 -40 -47
-31 -12 20 76 74 129 124 233 124 257 0 17 -5 12 -20 -19 -10 -24 -43 -73 -73
-110 -68 -87 -68 -86 -73 -136 -2 -23 -22 -80 -45 -127 l-40 -85 37 35 36 35
-27 -45 c-15 -25 -37 -58 -48 -75 -11 -16 15 4 57 45 l78 75 -7 -45 c-4 -25
-16 -64 -26 -87 -11 -23 -19 -45 -19 -48 0 -9 -84 -137 -112 -171 -63 -77
-385 -401 -443 -446 -43 -34 -138 -29 -360 16 -374 77 -415 94 -542 222 -48
48 -82 89 -76 91 6 2 50 -14 99 -37 80 -37 86 -38 64 -15 -13 14 -25 23 -28
20 -8 -8 -60 24 -87 52 -14 16 -25 23 -25 16 0 -6 6 -14 13 -16 9 -4 9 -6 -1
-6 -8 -1 -16 8 -19 18 -3 12 -17 23 -33 26 -16 3 -34 13 -40 21 -7 7 -16 12
-20 9 -4 -3 -11 2 -14 11 -4 9 -13 14 -22 10 -8 -3 -13 -2 -10 3 4 5 -13 20
-36 34 -24 14 -56 37 -73 51 -16 14 -38 29 -48 32 -9 3 -15 9 -12 13 2 5 -9
20 -26 35 -16 15 -34 38 -39 52 -6 14 -13 23 -17 21 -5 -3 -6 29 -5 71 4 74
-11 157 -26 148 -4 -2 -8 4 -8 15 0 10 1 19 3 19 14 0 93 -195 113 -278 15
-65 29 -76 22 -17 l-5 44 32 -12 c17 -6 31 -17 31 -25 0 -7 5 -10 10 -7 6 3
10 2 10 -4 0 -14 322 -333 329 -326 3 4 -1 10 -8 14 -8 5 -10 14 -6 22 5 8 5
11 1 8 -8 -7 -249 221 -242 228 3 3 20 -6 38 -20 40 -31 158 -90 165 -83 3 2
-13 16 -34 29 -21 14 -63 51 -92 82 -49 55 -131 166 -131 180 0 3 -12 32 -26
63 -45 99 -45 98 -18 111 32 14 34 14 34 -4 0 -7 -8 -19 -17 -24 -16 -9 -14
-10 7 -8 17 1 25 -3 25 -13 0 -15 4 -20 45 -70 l20 -25 -20 53 c-24 62 -26
115 -5 132 17 14 35 5 35 -17 0 -31 15 1 19 40 1 12 21 8 21 -5 0 -38 76 -191
104 -210 7 -5 3 -13 -9 -23 -19 -15 -15 -16 60 -12 86 5 173 33 156 50 -7 7
-7 15 1 25 15 17 17 128 4 191 l-9 44 28 -7 c16 -4 40 -16 54 -27 33 -26 39
-9 9 23 -44 45 -74 53 -192 52 -88 0 -123 -5 -170 -22 -33 -12 -61 -22 -63
-22 -1 0 -3 38 -3 84 l0 83 74 12 c41 7 118 14 170 15 l96 3 34 -36 c18 -20
59 -61 90 -91 l57 -55 -35 72 c-42 84 -46 107 -14 97 31 -10 60 -39 74 -76 44
-117 81 -208 86 -214 10 -9 1 166 -11 246 -12 76 -53 244 -46 185 3 -22 9 -59
14 -82 7 -34 5 -43 -6 -43 -23 0 -74 30 -68 40 4 6 2 10 -3 10 -25 0 -184 376
-202 478 -15 89 -38 162 -41 132 -3 -33 -3 -37 16 -165 35 -241 70 -391 98
-422 11 -13 16 -23 11 -23 -30 0 -135 210 -225 447 -13 35 -27 63 -31 63 -9 0
58 -170 141 -355 38 -86 64 -154 57 -152 -28 9 -137 165 -220 317 -40 72 -46
85 -46 98 0 6 -4 12 -10 12 -5 0 -10 -3 -10 -6 0 -10 72 -146 100 -189 15 -22
33 -56 40 -75 8 -19 17 -37 20 -40 3 -3 17 -21 30 -40 22 -34 21 -33 -23 10
-26 24 -46 51 -44 60 1 8 -4 14 -12 12 -8 -2 -11 3 -8 12 5 11 -44 81 -74 106
-18 16 -124 254 -148 335 -29 95 -30 106 -15 230 11 100 99 366 160 487 31 60
25 75 -9 21 -39 -62 -117 -248 -117 -278 0 -8 -4 -15 -9 -15 -5 0 -11 -8 -14
-17 -3 -10 -14 -42 -25 -70 -11 -29 -17 -53 -14 -53 4 0 2 -4 -4 -8 -16 -10
-44 -68 -37 -76 4 -3 8 -14 9 -24 3 -27 30 -126 68 -250 19 -62 34 -114 34
-115 1 -1 5 -14 10 -28 20 -52 30 -159 27 -299 -1 -86 0 -125 5 -95 4 28 6
112 6 188 -1 75 2 137 6 137 5 0 8 -4 8 -8 0 -11 132 -213 153 -234 9 -9 17
-20 17 -24 0 -5 17 -25 37 -46 20 -21 34 -40 31 -43 -3 -3 -39 -7 -79 -9 -41
-2 -96 -10 -122 -16 -26 -7 -51 -10 -54 -6 -3 3 -12 1 -19 -5 -17 -14 -45 -4
-39 14 3 7 -1 75 -10 151 -8 76 -15 172 -15 214 0 41 -3 72 -7 68 -9 -9 -6
-114 8 -264 6 -67 10 -125 7 -127 -9 -10 -50 275 -55 385 -8 184 -33 165 -32
-25 0 -101 -6 -214 -15 -270 -13 -81 -15 -165 -3 -165 7 0 6 -4 -3 -10 -13 -9
-13 -10 0 -10 9 -1 5 -6 -10 -15 -36 -21 -37 -20 -45 33 -4 26 -10 52 -15 57
-13 17 -38 278 -42 452 -2 57 -7 103 -11 103 -8 0 -5 -103 9 -305 5 -89 32
-321 40 -347 3 -12 -4 -18 -26 -23 -16 -4 -30 -11 -30 -16 0 -5 -7 -9 -15 -9
-8 0 -15 9 -15 20 0 32 -29 133 -40 140 -10 6 -28 143 -45 343 -4 42 -10 77
-15 77 -13 0 13 -412 30 -480 5 -19 10 -51 12 -70 1 -19 7 -38 13 -42 6 -5 6
-8 -2 -8 -7 0 -13 -7 -13 -15 0 -8 7 -15 16 -15 11 0 14 -5 10 -16 -3 -8 1
-54 9 -101 16 -90 20 -329 7 -351 -5 -8 -19 26 -37 90 -16 57 -29 106 -28 109
1 3 -9 46 -23 95 -13 49 -24 105 -24 125 0 20 -4 49 -9 65 -5 16 -12 42 -15
57 -8 36 -30 24 -23 -13 3 -15 -2 -67 -13 -116 -10 -49 -17 -113 -16 -142 2
-32 -1 -48 -6 -40 -5 9 -8 3 -8 -17 0 -16 -2 -46 -4 -65 -2 -19 2 -41 8 -49 8
-11 8 -13 0 -8 -7 4 -14 -5 -18 -23 -10 -51 -22 -33 -20 30 1 48 -2 60 -14 60
-13 0 -13 3 -4 12 8 8 12 47 11 117 -2 119 -6 101 -28 -114 -7 -66 -16 -130
-21 -142 -11 -27 -54 -40 -75 -23 -12 10 -15 10 -15 -2 0 -12 -57 -38 -82 -38
-5 0 10 171 17 178 2 3 11 -10 19 -29 9 -19 15 -27 16 -19 0 8 -7 28 -16 45
-14 27 -13 38 2 123 9 51 19 91 21 88 3 -3 7 -49 10 -103 3 -54 7 -100 8 -101
2 -2 3 97 2 220 -1 122 2 238 7 255 6 26 4 33 -7 33 -13 0 -52 -98 -43 -108 3
-2 10 11 15 29 11 34 11 34 5 -6 -4 -22 -7 -45 -7 -52 0 -7 -4 -10 -9 -7 -5 3
-6 10 -3 15 4 5 1 9 -4 9 -6 0 -12 -17 -12 -37 -1 -21 -3 -49 -6 -63 -2 -14
-6 -68 -8 -120 -3 -52 -7 -113 -9 -135 -3 -22 -8 -72 -12 -112 -4 -41 -11 -70
-16 -67 -6 4 -8 122 -6 293 2 157 1 243 -2 191 -7 -125 -18 -85 -60 214 -25
176 -25 265 0 419 21 133 41 209 70 266 10 20 31 65 45 101 15 36 50 115 77
175 27 61 61 135 75 165 13 30 35 76 49 101 30 59 31 76 0 27 -12 -21 -30 -45
-38 -55 -9 -10 -35 -56 -59 -103 -23 -47 -51 -96 -61 -109 -10 -13 -18 -33
-18 -45 0 -18 -2 -19 -11 -6 -8 12 -9 9 -5 -11 3 -14 2 -29 -2 -33 -4 -4 -12
-24 -18 -44 -11 -35 -11 -33 -7 23 7 92 29 169 72 250 45 86 59 107 163 241
85 109 117 132 238 174 36 12 70 25 75 30 12 10 146 42 152 37 2 -2 -7 -12
-19 -23 -12 -10 -18 -13 -14 -6 4 6 3 12 -3 12 -6 0 -17 -13 -26 -30 -9 -16
-18 -30 -21 -30 -2 0 0 9 6 19 19 37 10 36 -25 -2 -41 -45 -68 -94 -60 -108 4
-5 2 -8 -4 -7 -6 2 -25 -22 -41 -52 -32 -56 -30 -55 31 16 19 22 136 133 193
183 67 59 179 135 256 173 60 31 92 39 160 46 147 14 360 15 376 1z m-906
-282 c0 -2 -10 -12 -21 -23 -22 -19 -22 -19 -8 4 12 19 29 30 29 19z m1775
-27 c3 -5 1 -10 -4 -10 -6 0 -11 5 -11 10 0 6 2 10 4 10 3 0 8 -4 11 -10z m73
-135 c-3 -3 -9 2 -12 12 -6 14 -5 15 5 6 7 -7 10 -15 7 -18z m132 -128 c0 -9
-2 -9 -8 0 -5 8 -13 9 -22 3 -8 -6 -22 -10 -30 -9 -8 0 -1 6 15 13 32 14 45
12 45 -7z m-234 -29 c46 -52 46 -60 2 -23 -27 22 -48 41 -48 42 0 12 30 -1 46
-19z m275 -22 c10 -10 16 -23 13 -27 -3 -5 -18 5 -34 23 -22 23 -26 34 -17 40
7 4 14 2 16 -4 2 -7 12 -21 22 -32z m-17 -32 c3 -8 2 -12 -4 -9 -6 3 -10 10
-10 16 0 14 7 11 14 -7z m76 -58 c0 -6 -9 0 -20 12 -11 12 -20 27 -20 34 0 14
39 -31 40 -46z m-249 17 c13 -16 12 -17 -3 -4 -17 13 -22 21 -14 21 2 0 10 -8
17 -17z m189 -118 c0 -8 -9 -19 -20 -25 -16 -9 -20 -8 -20 5 0 9 5 13 10 10 6
-3 13 1 16 9 8 20 14 20 14 1z m111 -28 c-10 -9 -11 -8 -5 6 3 10 9 15 12 12
3 -3 0 -11 -7 -18z m-124 -29 c-3 -8 -6 -5 -6 6 -1 11 2 17 5 13 3 -3 4 -12 1
-19z m25 -14 c-9 -16 -10 -14 -9 8 1 15 6 23 11 18 4 -4 4 -16 -2 -26z m131
-11 c-4 -10 -2 -14 4 -10 5 3 20 -8 34 -26 l23 -32 -42 33 c-44 35 -53 52 -27
52 9 0 12 -6 8 -17z m-2048 -70 c-4 -21 -9 -42 -12 -46 -8 -13 -23 14 -22 38
1 16 2 16 9 -5 8 -25 8 -25 10 5 1 17 2 33 1 38 0 4 4 7 10 7 8 0 9 -12 4 -37z
m2115 -30 c0 -14 -46 -18 -54 -4 -3 4 6 6 19 3 15 -2 25 0 25 7 0 6 -5 11 -11
11 -6 0 -17 6 -25 14 -24 25 -15 28 16 4 17 -12 30 -28 30 -35z m45 -82 c9
-36 19 -72 22 -80 4 -14 4 -14 -6 -1 -6 8 -11 11 -11 7 0 -5 -5 -5 -10 -2 -7
4 -8 11 -1 18 6 8 5 26 -4 51 -21 59 -28 92 -17 81 5 -5 17 -39 27 -74z m-40
49 c3 -5 1 -10 -4 -10 -6 0 -11 5 -11 10 0 6 2 10 4 10 3 0 8 -4 11 -10z m12
-106 c-3 -4 0 -19 8 -35 8 -15 15 -34 15 -41 0 -7 -9 5 -20 26 -18 35 -19 56
-3 56 4 0 4 -3 0 -6z m-31 -39 c8 -10 14 -26 14 -34 0 -10 -5 -6 -13 9 -7 14
-19 25 -26 25 -8 0 -16 5 -18 12 -6 18 28 9 43 -12z m129 -153 c-2 -3 -7 1
-10 9 -24 68 -35 104 -34 118 0 9 11 -15 25 -53 13 -38 22 -72 19 -74z m-54
73 c12 8 11 -6 -1 -25 -5 -8 -10 -10 -10 -5 0 6 -2 19 -4 30 -2 11 -1 14 1 7
3 -7 9 -10 14 -7z m-31 -25 c0 -5 -2 -10 -4 -10 -3 0 -8 5 -11 10 -3 6 -1 10
4 10 6 0 11 -4 11 -10z m49 -37 c0 -33 -1 -35 -9 -15 -8 20 -4 52 6 52 2 0 4
-17 3 -37z m-49 7 c0 -5 -2 -10 -4 -10 -3 0 -8 5 -11 10 -3 6 -1 10 4 10 6 0
11 -4 11 -10z m2 -62 c-6 -6 -7 0 -4 19 5 21 7 23 10 9 2 -10 0 -22 -6 -28z
m71 -11 c2 -20 0 -37 -4 -37 -5 0 -9 8 -9 18 0 10 -6 24 -12 31 -10 11 -10 13
0 7 7 -5 12 -1 12 10 0 30 9 10 13 -29z m31 -67 c3 -38 2 -59 -3 -50 -5 8 -11
47 -14 85 -6 86 8 55 17 -35z m-142 46 c-5 -19 -6 -19 -13 0 -7 18 -8 17 -8
-3 -1 -15 5 -23 17 -24 9 0 12 -3 5 -5 -7 -3 -10 -11 -7 -18 3 -7 6 -37 8 -67
2 -34 7 -53 15 -51 6 1 11 -4 11 -10 0 -9 4 -8 11 2 9 13 10 13 6 0 -2 -9 -13
-14 -25 -12 -16 2 -22 -2 -23 -15 -1 -56 -10 -94 -29 -126 -14 -24 -19 -44
-15 -58 5 -13 3 -19 -3 -15 -5 3 -13 -6 -17 -21 -4 -16 -2 -29 5 -33 9 -6 9
-13 1 -29 -7 -11 -14 -21 -17 -21 -2 0 0 9 6 20 12 22 1 27 -19 8 -10 -11 -11
-10 -6 5 5 10 2 17 -5 17 -9 0 -10 3 -1 14 11 14 45 186 56 286 19 180 18 177
38 177 9 0 12 -7 9 -21z m104 -114 c41 -188 40 -211 -8 -212 -16 0 -18 12 -18
118 0 64 -3 135 -6 157 -8 63 14 18 32 -63z m-47 43 c0 -5 -4 -3 -9 5 -5 8 -9
22 -9 30 0 16 17 -16 18 -35z m-2 -55 c0 -16 -4 -30 -9 -30 -9 0 -11 22 -2 44
9 23 11 20 11 -14z m103 1 c0 -6 -4 -13 -10 -16 -5 -3 -10 1 -10 9 0 9 5 16
10 16 6 0 10 -4 10 -9z m-1757 -136 c65 -153 75 -185 56 -185 -26 0 -36 15
-57 80 -42 132 -72 255 -58 239 2 -2 28 -63 59 -134z m1770 30 c4 -23 3 -34
-2 -25 -5 8 -11 35 -14 60 -8 55 7 23 16 -35z m-2267 -150 l23 -100 -21 -16
c-21 -16 -49 -20 -48 -6 0 4 1 80 1 170 1 140 3 155 12 107 5 -30 20 -100 33
-155z m2144 142 c0 -5 -4 -5 -10 -2 -5 3 -10 14 -10 23 0 15 2 15 10 2 5 -8
10 -19 10 -23z m10 -49 c0 -6 -7 -5 -15 2 -8 7 -15 17 -15 22 0 6 7 5 15 -2 8
-7 15 -17 15 -22z m-28 -30 c-15 -15 -24 -6 -16 16 5 12 10 14 17 7 8 -8 8
-14 -1 -23z m-56 -44 c-4 -9 -9 -15 -11 -12 -3 3 -3 13 1 22 4 9 9 15 11 12 3
-3 3 -13 -1 -22z m-25 -77 c-10 -9 -11 -8 -5 6 3 10 9 15 12 12 3 -3 0 -11 -7
-18z m-1651 -17 c12 -8 10 -10 -10 -10 -54 -1 -158 -11 -209 -20 -68 -12 -84
-12 -77 -1 8 12 49 21 136 27 41 3 77 8 79 10 8 8 66 4 81 -6z m175 -10 c3 -5
-3 -10 -14 -10 -12 0 -21 5 -21 10 0 6 6 10 14 10 8 0 18 -4 21 -10z m1548
-48 c-4 -21 -7 -54 -8 -75 0 -32 -2 -35 -12 -20 -13 17 -18 124 -7 136 3 3 12
3 20 0 10 -4 12 -15 7 -41z m-160 23 c-3 -9 -8 -14 -10 -11 -3 3 -2 9 2 15 9
16 15 13 8 -4z m-1883 -5 c0 -5 -5 -10 -11 -10 -5 0 -7 5 -4 10 3 6 8 10 11
10 2 0 4 -4 4 -10z m-331 -45 c0 -5 -4 -3 -9 5 -5 8 -9 22 -9 30 0 16 17 -16
18 -35z m950 23 c5 -13 12 -51 16 -86 6 -53 5 -61 -8 -56 -9 3 -13 13 -9 26 4
15 2 19 -7 13 -10 -5 -11 -2 -6 14 4 12 2 21 -4 21 -6 0 -10 3 -10 8 3 19 -2
33 -10 28 -5 -4 -7 4 -3 16 3 14 2 19 -6 14 -7 -4 -12 -3 -12 2 0 30 48 29 59
0z m-615 -29 c3 -17 6 -55 5 -83 -1 -61 -12 -34 -23 57 -8 60 7 81 18 26z
m1893 9 c-3 -8 -6 -5 -6 6 -1 11 2 17 5 13 3 -3 4 -12 1 -19z m34 -5 c-12 -20
-14 -14 -5 12 4 9 9 14 11 11 3 -2 0 -13 -6 -23z m-1959 -60 c18 -89 11 -106
-44 -119 -21 -4 -27 -9 -18 -14 7 -4 10 -15 7 -24 -7 -18 -48 -37 -59 -27 -4
3 -2 58 4 121 11 124 19 140 68 140 26 0 28 -4 42 -77z m-144 15 c-1 -51 3
-66 12 -38 7 23 8 23 9 3 1 -12 -3 -25 -9 -28 -5 -3 -7 -20 -5 -38 l5 -32 -10
29 c-5 16 -7 33 -4 38 3 4 0 8 -5 8 -6 0 -11 -6 -11 -12 0 -9 -4 -8 -10 2 -5
8 -10 34 -10 58 0 35 3 42 20 42 16 0 19 -6 18 -32z m25 12 c-3 -12 -8 -19
-11 -16 -5 6 5 36 12 36 2 0 2 -9 -1 -20z m2135 -6 c0 -15 -4 -22 -10 -16 -5
5 -6 16 -2 25 9 23 12 21 12 -9z m-2214 -21 c12 -68 18 -349 8 -333 -15 23
-89 250 -96 295 -7 39 -5 42 26 57 48 24 55 22 62 -19z m2080 11 c4 -9 2 -13
-5 -8 -8 4 -9 -1 -4 -15 3 -11 2 -21 -3 -21 -9 0 -13 26 -6 48 5 16 11 15 18
-4z m116 -23 c20 -38 3 -194 -33 -296 l-14 -40 -8 70 c-4 39 -11 78 -16 88 -6
9 -6 17 -2 17 4 0 9 24 10 54 2 58 25 126 42 126 6 0 15 -9 21 -19z m-79 -18
c-12 -20 -14 -14 -5 12 4 9 9 14 11 11 3 -2 0 -13 -6 -23z m-23 -43 c-7 -11
-16 -20 -20 -20 -5 0 -3 9 4 20 7 11 16 20 20 20 5 0 3 -9 -4 -20z m-51 -6
c-3 -3 -12 -4 -19 -1 -8 3 -5 6 6 6 11 1 17 -2 13 -5z m-2299 -50 c-3 -27 -4
-26 -9 8 -3 22 -1 34 4 29 5 -5 7 -21 5 -37z m2304 14 c-7 -7 -12 -19 -12 -27
0 -11 4 -10 16 5 15 18 15 18 4 -3 -7 -15 -16 -20 -27 -16 -13 5 -15 2 -10
-11 5 -11 3 -15 -5 -10 -7 5 -9 2 -5 -9 3 -9 -1 -21 -11 -29 -15 -11 -16 -11
-4 4 8 10 9 17 3 20 -6 1 4 24 22 49 17 26 34 45 36 43 3 -2 -1 -10 -7 -16z
m-1674 0 c7 -7 12 -24 12 -38 0 -47 -37 -65 -72 -33 -34 31 -17 83 27 83 12 0
26 -5 33 -12z m-313 -39 c-5 -42 -15 -50 -15 -12 0 26 6 43 16 43 2 0 1 -14
-1 -31z m2065 27 c0 -2 -7 -7 -16 -10 -8 -3 -12 -2 -9 4 6 10 25 14 25 6z
m-2683 -48 c-3 -8 -6 -5 -6 6 -1 11 2 17 5 13 3 -3 4 -12 1 -19z m330 -33 c-3
-19 0 -35 5 -35 4 0 6 -12 2 -27 -4 -22 -3 -24 5 -13 8 12 10 9 9 -15 -1 -16
2 -37 6 -46 10 -23 -28 -68 -44 -52 -10 9 -9 17 4 34 20 29 20 46 1 65 -8 9
-15 21 -15 27 0 7 4 6 10 -3 6 -9 10 -10 10 -3 0 6 -4 14 -9 17 -8 5 6 86 15
86 3 0 3 -16 1 -35z m2316 8 c3 -16 9 -37 12 -48 6 -16 5 -17 -4 -5 -6 9 -11
10 -11 3 0 -6 6 -18 13 -25 7 -7 16 -22 20 -33 7 -19 6 -19 -7 -1 -13 16 -15
6 -18 -94 -2 -62 1 -114 5 -117 4 -3 2 -12 -5 -21 -11 -13 -10 -15 4 -9 10 3
20 2 23 -3 4 -6 -3 -10 -13 -10 -20 0 -23 -11 -37 -145 -4 -32 -3 -35 4 -15
l9 25 1 -25 c1 -20 3 -22 11 -10 5 8 10 10 10 4 0 -6 -6 -17 -14 -24 -8 -6
-12 -19 -9 -28 4 -14 3 -15 -5 -2 -6 8 -8 18 -6 22 10 16 -9 8 -22 -9 -12 -16
-13 -13 -14 25 0 23 -4 42 -10 42 -5 0 -10 5 -10 11 0 5 5 7 10 4 6 -3 11 0
11 7 4 44 -3 443 -8 451 -3 6 -1 7 4 4 6 -4 13 6 17 23 7 38 32 39 39 3z
m-2006 -45 c-3 -8 -6 -5 -6 6 -1 11 2 17 5 13 3 -3 4 -12 1 -19z m-46 -122
c-7 -16 -10 -1 -9 59 l0 80 10 -59 c6 -39 6 -67 -1 -80z m2223 94 c4 -25 3
-31 -4 -20 -5 8 -10 26 -10 39 0 32 6 24 14 -19z m-258 2 c-17 -16 -18 -16 -5
5 7 12 15 20 18 17 3 -2 -3 -12 -13 -22z m-1431 -2 c3 -11 3 -24 0 -30 -16
-26 -60 4 -49 34 9 22 41 20 49 -4z m1371 -6 c-4 -9 -9 -15 -11 -12 -3 3 -3
13 1 22 4 9 9 15 11 12 3 -3 3 -13 -1 -22z m-2235 -60 c-5 -21 -9 -30 -10 -19
-1 24 10 67 15 62 3 -2 0 -22 -5 -43z m443 -74 c27 -36 76 -94 110 -129 l61
-64 -44 24 c-24 13 -78 57 -120 98 -42 41 -79 74 -83 73 -13 -3 -20 40 -13 76
l7 37 17 -25 c9 -13 38 -54 65 -90z m2114 75 c-3 -3 -9 2 -12 12 -6 14 -5 15
5 6 7 -7 10 -15 7 -18z m-2341 -22 c-3 -10 -5 -4 -5 12 0 17 2 24 5 18 2 -7 2
-21 0 -30z m2203 1 c0 -8 -5 -12 -10 -9 -6 4 -8 11 -5 16 9 14 15 11 15 -7z
m140 -16 c0 -6 -7 -5 -15 2 -8 7 -15 17 -15 22 0 6 7 5 15 -2 8 -7 15 -17 15
-22z m-2643 -10 c-3 -7 -5 -2 -5 12 0 14 2 19 5 13 2 -7 2 -19 0 -25z m2328 1
c-5 -14 -3 -19 3 -15 6 3 13 2 17 -4 3 -5 1 -10 -5 -10 -14 0 -35 -20 -43 -40
-4 -12 -6 -12 -6 2 -1 9 5 23 12 30 6 7 12 19 13 26 2 25 4 32 10 32 3 0 2
-10 -1 -21z m75 5 c0 -8 -5 -12 -10 -9 -6 4 -8 11 -5 16 9 14 15 11 15 -7z
m-2090 -19 c-6 -8 -10 -18 -7 -22 2 -4 1 -28 -3 -53 -8 -45 -8 -45 -7 15 0 33
5 63 11 67 17 12 20 9 6 -7z m2188 -30 c-1 -25 -5 -41 -9 -34 -4 6 -5 19 -4
28 2 9 4 24 4 34 1 9 3 17 6 17 3 0 4 -20 3 -45z m-118 15 c0 -5 -5 -10 -11
-10 -5 0 -7 5 -4 10 3 6 8 10 11 10 2 0 4 -4 4 -10z m-2383 -32 c-3 -7 -5 -2
-5 12 0 14 2 19 5 13 2 -7 2 -19 0 -25z m2403 -37 c0 -32 -6 -24 -14 19 -4 25
-3 31 4 20 5 -8 10 -26 10 -39z m-70 29 c0 -5 -2 -10 -4 -10 -3 0 -8 5 -11 10
-3 6 -1 10 4 10 6 0 11 -4 11 -10z m314 -5 c3 -8 1 -15 -4 -15 -6 0 -10 7 -10
15 0 8 2 15 4 15 2 0 6 -7 10 -15z m-364 -52 c-11 -17 -11 -17 -6 0 3 10 6 24
7 30 0 9 2 9 5 0 3 -7 0 -20 -6 -30z m220 11 c0 -8 -4 -12 -10 -9 -5 3 -10 10
-10 16 0 5 5 9 10 9 6 0 10 -7 10 -16z m145 6 c3 -5 1 -10 -4 -10 -6 0 -11 5
-11 10 0 6 2 10 4 10 3 0 8 -4 11 -10z m-303 -25 c6 14 6 11 2 -10 -4 -16 -7
-35 -7 -42 0 -7 -4 -10 -9 -7 -5 3 -6 14 -3 25 4 11 2 19 -4 19 -6 0 -11 8
-11 18 1 15 2 15 12 -3 11 -19 11 -19 20 0z m-2080 -37 c-6 -6 -12 -6 -17 3
-5 8 -4 10 3 5 7 -4 12 0 13 11 0 12 2 13 6 5 3 -8 1 -18 -5 -24z m2012 14 c3
-5 -1 -9 -9 -9 -8 0 -12 4 -9 9 3 4 7 8 9 8 2 0 6 -4 9 -8z m6 -32 c0 -5 -2
-10 -4 -10 -3 0 -8 5 -11 10 -3 6 -1 10 4 10 6 0 11 -4 11 -10z m217 -25 c-4
-8 -12 -15 -19 -15 -9 0 -8 3 2 10 8 5 11 10 7 10 -5 0 -5 5 -2 11 10 15 19 3
12 -16z m-1999 -42 c17 -9 32 -20 32 -24 0 -11 -110 54 -110 65 0 5 10 1 23
-8 12 -9 37 -24 55 -33z m1769 15 c-3 -7 -5 -2 -5 12 0 14 2 19 5 13 2 -7 2
-19 0 -25z m-1997 12 c0 -5 -2 -10 -4 -10 -3 0 -8 5 -11 10 -3 6 -1 10 4 10 6
0 11 -4 11 -10z m2020 -34 c-11 -33 -30 -50 -30 -26 0 6 4 10 9 10 5 0 12 14
16 31 4 17 9 28 12 25 3 -2 0 -21 -7 -40z m40 11 c-1 -16 -39 -66 -40 -51 0 6
7 17 16 25 8 7 13 21 11 31 -3 10 -1 16 4 12 5 -3 9 -11 9 -17z m80 3 c0 -5
-5 -10 -11 -10 -5 0 -7 5 -4 10 3 6 8 10 11 10 2 0 4 -4 4 -10z m-195 -10 c-3
-5 -12 -10 -18 -10 -7 0 -6 4 3 10 19 12 23 12 15 0z m272 -32 c-3 -7 -5 -2
-5 12 0 14 2 19 5 13 2 -7 2 -19 0 -25z m-2529 -58 c2 -30 8 -60 14 -67 6 -8
8 -16 5 -20 -11 -10 -47 79 -47 115 0 57 25 32 28 -28z m607 50 c3 -5 2 -10
-4 -10 -5 0 -13 5 -16 10 -3 6 -2 10 4 10 5 0 13 -4 16 -10z m-588 -22 c-3 -8
-6 -5 -6 6 -1 11 2 17 5 13 3 -3 4 -12 1 -19z m2308 2 c3 -5 -1 -10 -9 -10 -9
0 -16 5 -16 10 0 6 4 10 9 10 6 0 13 -4 16 -10z m27 -12 c-7 -7 -12 -8 -12 -2
0 14 12 26 19 19 2 -3 -1 -11 -7 -17z m85 -20 c-3 -8 -6 -5 -6 6 -1 11 2 17 5
13 3 -3 4 -12 1 -19z m-2640 6 c-3 -3 -12 -4 -19 -1 -8 3 -5 6 6 6 11 1 17 -2
13 -5z m2506 -49 c-3 -9 -8 -14 -10 -11 -3 3 -2 9 2 15 9 16 15 13 8 -4z m14
-37 c-3 -8 -6 -5 -6 6 -1 11 2 17 5 13 3 -3 4 -12 1 -19z m-150 -23 c0 -8 -4
-12 -9 -9 -5 3 -6 10 -3 15 9 13 12 11 12 -6z m314 0 c7 19 8 18 8 -3 1 -25
-23 -26 -25 -1 -1 11 0 10 4 -1 4 -12 6 -11 13 5z m-190 -52 c-9 -16 -10 -15
-9 9 2 16 6 24 11 19 5 -5 5 -17 -2 -28z m-1874 -5 c-3 -8 -6 -5 -6 6 -1 11 2
17 5 13 3 -3 4 -12 1 -19z m1660 -15 c-3 -10 -5 -4 -5 12 0 17 2 24 5 18 2 -7
2 -21 0 -30z m388 7 c3 -5 1 -10 -4 -10 -6 0 -11 5 -11 10 0 6 2 10 4 10 3 0
8 -4 11 -10z m-2015 -41 c15 -28 5 -23 -15 7 -9 15 -12 23 -6 20 6 -4 16 -16
21 -27z m2004 5 c3 -8 2 -12 -4 -9 -6 3 -10 -2 -10 -11 0 -10 -3 -15 -6 -11
-6 5 4 47 11 47 1 0 6 -7 9 -16z m-480 -20 c11 -28 7 -40 -26 -74 -40 -40
-156 -127 -218 -162 -59 -34 -112 -40 -247 -29 -132 11 -183 30 -195 75 -9 37
-7 39 26 26 33 -12 212 -47 284 -55 91 -9 116 4 242 125 63 60 118 110 121
110 4 0 10 -7 13 -16z m452 -61 c-8 -15 -15 -25 -16 -21 0 12 23 58 27 54 3
-2 -2 -17 -11 -33z m-1392 -65 c4 -10 8 -10 11 -2 6 12 37 6 90 -17 l20 -9
-20 4 c-73 16 -89 18 -80 8 11 -12 126 -35 133 -27 3 3 -2 5 -11 5 -9 0 -17 4
-17 9 0 5 14 4 30 -2 24 -9 33 -9 39 1 4 7 15 10 23 7 20 -8 30 -56 16 -73 -8
-9 -7 -33 1 -82 12 -75 14 -150 5 -174 -5 -14 -9 -13 -34 4 -15 11 -32 20 -37
20 -5 0 -16 9 -26 20 -10 12 -12 20 -5 20 6 0 4 8 -5 18 -10 10 -17 26 -17 35
0 9 -5 19 -11 23 -11 6 -11 4 6 -55 6 -21 3 -20 -34 14 -46 43 -45 41 -29 51
6 4 8 3 4 -4 -3 -6 -2 -13 3 -16 15 -10 6 25 -10 36 -11 8 -10 9 4 4 12 -4 17
-2 14 6 -2 7 -10 12 -16 10 -6 -1 -11 2 -11 8 0 6 -7 10 -15 10 -8 0 -15 5
-15 11 0 5 -4 8 -9 5 -11 -7 -56 32 -48 41 4 3 -1 16 -10 27 -12 13 -12 17 -3
9 8 -6 34 -14 57 -18 24 -4 45 -11 49 -16 11 -19 25 -8 22 19 -2 16 -9 27 -18
27 -8 -1 -28 12 -45 27 -16 15 -25 28 -18 28 6 0 14 -6 17 -12z m-121 -23 c35
-18 49 -35 27 -35 -5 0 -10 5 -10 11 0 5 -4 8 -8 5 -5 -3 -21 6 -38 20 -32 28
-27 28 29 -1z m-97 -72 c21 -18 48 -39 59 -47 15 -12 16 -15 5 -16 -9 0 -42
25 -75 56 -62 59 -56 63 11 7z m55 -20 c13 -16 12 -17 -3 -4 -17 13 -22 21
-14 21 2 0 10 -8 17 -17z m67 -22 c12 -11 22 -24 22 -30 0 -6 5 -11 10 -11 6
0 10 -6 10 -14 0 -8 4 -16 8 -18 12 -4 72 -89 72 -101 0 -15 -25 14 -98 111
-61 81 -68 99 -24 63z m122 -62 c0 -6 -4 -7 -10 -4 -5 3 -10 11 -10 16 0 6 5
7 10 4 6 -3 10 -11 10 -16z"/>
<path d="M4070 3457 c0 -5 6 -23 14 -40 41 -91 56 -127 56 -136 0 -6 4 -11 9
-11 5 0 11 -10 14 -22 2 -13 21 -75 41 -138 20 -63 43 -155 51 -205 8 -49 17
-101 20 -115 21 -97 36 -615 21 -720 -1 -14 -6 -54 -10 -90 -12 -110 -39 -226
-47 -204 -5 12 -8 0 -8 -35 -1 -30 2 -52 5 -49 15 16 52 201 69 348 3 30 19
93 35 140 17 47 39 119 49 160 11 41 20 64 20 50 1 -49 -38 -267 -69 -379 -16
-63 -28 -116 -26 -118 5 -6 110 180 150 267 25 54 43 80 66 94 l32 18 -7 -33
c-10 -54 -76 -261 -92 -293 -31 -60 8 -12 44 54 20 39 43 70 50 70 16 0 16 -5
2 -32 -6 -11 -8 -22 -5 -25 6 -6 28 15 43 42 10 17 12 14 23 -25 16 -58 33
-92 71 -135 26 -29 38 -35 73 -35 44 0 132 36 155 64 13 16 12 17 -12 11 -26
-7 -26 -7 -15 32 12 44 5 142 -15 200 l-14 40 33 12 c42 15 113 0 137 -30 12
-15 17 -39 17 -82 0 -82 19 -62 22 23 3 72 17 83 35 30 12 -34 12 -33 14 35 3
127 18 7 18 -149 l1 -139 -44 -92 c-24 -50 -60 -110 -80 -132 -20 -22 -36 -44
-36 -47 0 -4 28 25 63 64 66 77 89 108 67 95 -7 -4 -11 -4 -8 1 2 5 23 47 46
94 23 47 45 102 49 122 3 23 10 35 16 31 6 -4 8 0 4 10 -4 10 -2 17 5 17 6 0
8 11 4 30 -4 22 -2 29 6 24 8 -5 9 2 5 24 -4 20 -2 32 6 35 7 2 12 22 11 50 0
26 4 43 9 40 6 -4 8 14 5 45 -4 36 -2 49 6 45 6 -4 5 1 -3 10 -10 13 -10 17
-1 17 10 0 10 3 0 14 -6 8 -10 25 -7 38 4 20 5 19 7 -7 2 -23 4 -19 10 20 8
49 5 195 -5 245 -12 62 -39 150 -46 150 -5 0 -6 7 -3 15 4 8 2 15 -3 15 -6 0
-18 29 -28 65 -9 36 -21 65 -26 65 -5 0 -9 9 -9 20 0 11 -7 23 -15 26 -8 4
-22 20 -30 38 -44 89 -139 147 -362 220 -161 53 -443 96 -443 67 0 -10 103
-76 174 -112 26 -13 50 -30 53 -36 3 -7 9 -10 14 -7 5 3 9 -2 9 -10 0 -9 5
-16 11 -16 5 0 7 6 3 13 -4 7 -3 9 2 4 5 -5 9 -14 9 -19 0 -6 6 -13 14 -16 9
-3 11 0 7 9 -4 8 0 5 9 -6 9 -11 20 -19 25 -18 5 2 12 -6 15 -17 4 -11 10 -18
15 -15 4 3 7 -3 6 -13 -1 -13 6 -16 27 -15 18 1 27 -3 27 -13 0 -8 11 -19 25
-24 14 -5 25 -14 25 -19 0 -5 7 -12 16 -15 10 -4 13 -2 8 7 -5 8 -2 8 9 -2 9
-7 15 -17 12 -21 -3 -4 2 -11 11 -14 10 -4 13 -2 8 7 -4 7 -3 9 2 4 5 -5 9
-14 9 -20 0 -6 10 -17 23 -23 13 -6 23 -15 24 -20 0 -5 5 -18 11 -29 21 -39
116 -328 111 -336 -3 -5 -1 -9 4 -9 5 0 9 -12 10 -27 0 -16 2 -37 4 -48 6 -37
-34 -24 -56 20 -29 55 -96 217 -96 232 0 6 -13 44 -29 85 -16 40 -35 87 -41
103 l-12 30 -9 -23 c-7 -18 -3 -36 15 -72 16 -33 27 -79 35 -149 14 -128 14
-281 1 -281 -5 0 -11 10 -11 23 -1 12 -3 31 -4 42 -1 11 -5 52 -10 90 -11 104
-31 201 -59 280 -14 39 -25 68 -25 65 -1 -3 6 -43 14 -89 13 -76 13 -98 -1
-205 -8 -66 -27 -155 -40 -199 -23 -71 -29 -80 -59 -93 -45 -18 -55 -18 -55 4
0 15 2 15 11 2 9 -12 10 -11 6 8 -3 12 -2 22 3 22 4 0 10 11 12 25 3 13 1 22
-3 19 -5 -3 -9 0 -9 5 0 6 5 11 11 11 7 0 9 9 6 22 -4 12 -1 28 5 35 16 20 16
292 0 302 -7 4 -11 16 -10 27 1 10 -2 53 -6 94 -13 113 -23 62 -30 -165 -6
-208 -18 -281 -59 -383 -39 -93 -40 -97 -39 -103 0 -3 -21 -28 -49 -55 -51
-50 -55 -47 -40 21 5 22 12 65 16 95 3 30 10 75 15 100 5 25 9 53 9 63 1 9 2
23 2 30 1 6 -2 21 -6 32 -5 14 -4 16 3 7 15 -22 21 30 17 168 -2 69 -4 168 -5
220 -3 93 -3 94 -12 40 -4 -30 -10 -95 -13 -143 -2 -48 -8 -111 -14 -140 -16
-78 -24 -138 -24 -179 -1 -20 -5 -34 -9 -32 -4 3 -8 0 -8 -5 0 -6 5 -11 10
-11 6 0 10 -8 10 -17 0 -15 -2 -16 -10 -3 -8 13 -10 12 -10 -2 0 -10 5 -18 11
-18 5 0 7 -4 4 -10 -8 -13 -30 8 -31 29 -2 37 -16 249 -19 288 -6 73 -17 138
-25 148 -4 6 -10 34 -14 63 -10 76 -83 275 -98 266 -4 -3 -8 4 -8 15 0 10 -3
21 -7 23 -5 2 -21 29 -37 60 -28 56 -85 131 -86 115z m410 -102 c52 -8 104
-16 115 -18 11 -3 37 -7 58 -11 31 -6 37 -11 37 -32 0 -13 10 -32 22 -42 75
-61 180 -158 222 -205 56 -63 61 -70 70 -111 7 -27 3 -25 -61 31 -115 101
-373 285 -463 329 -96 48 -134 73 -110 74 8 0 58 -7 110 -15z m395 -109 c86
-33 177 -91 204 -130 58 -85 95 -175 124 -303 13 -57 13 -63 -2 -63 -9 0 -51
33 -93 73 -65 60 -78 78 -78 104 0 56 -131 209 -253 296 -43 31 -67 55 -67 67
0 19 3 19 68 -6 37 -15 81 -32 97 -38z m-598 -258 c-3 -8 -6 -5 -6 6 -1 11 2
17 5 13 3 -3 4 -12 1 -19z m698 -96 c-7 -7 -34 18 -47 42 -8 16 -3 14 21 -8
17 -16 29 -32 26 -34z m-146 -1 c0 -14 -1 -14 -6 -1 -3 8 -10 24 -15 35 -9 20
-9 20 6 1 9 -11 16 -27 15 -35z m-532 -3 c-3 -8 -6 -5 -6 6 -1 11 2 17 5 13 3
-3 4 -12 1 -19z m681 -44 c-4 -3 -12 5 -18 18 -12 22 -12 22 6 6 10 -10 15
-20 12 -24z m42 17 c0 -8 -19 -37 -21 -31 0 3 -2 15 -5 27 -3 17 0 21 11 17 8
-4 15 -9 15 -13z m-706 -7 c3 -8 2 -12 -4 -9 -6 3 -10 10 -10 16 0 14 7 11 14
-7z m719 -21 c-4 -11 -3 -14 5 -9 7 4 12 2 12 -4 0 -6 6 -10 14 -8 8 2 15 -1
16 -7 2 -14 21 -35 32 -35 5 0 6 6 2 13 -4 7 -3 9 2 4 5 -5 9 -14 9 -20 1 -7
5 -11 11 -10 5 1 19 -12 29 -28 11 -16 26 -27 32 -24 26 9 38 -76 37 -270 -1
-163 -4 -201 -23 -270 -12 -44 -26 -99 -31 -123 -20 -90 -26 -68 -25 88 1 106
-2 160 -9 160 -6 0 -4 5 4 11 8 6 11 12 5 15 -6 2 -8 25 -6 50 2 25 -1 56 -7
68 -5 11 -18 48 -27 81 -39 139 -81 260 -90 258 -5 -1 -9 12 -9 28 2 45 3 49
14 49 5 0 6 -7 3 -17z m-31 -47 c-3 -5 -9 -1 -13 10 -12 31 -10 39 5 19 8 -11
12 -24 8 -29z m235 2 c-3 -8 -6 -5 -6 6 -1 11 2 17 5 13 3 -3 4 -12 1 -19z
m-412 -279 l6 -65 -58 -26 c-32 -14 -59 -22 -61 -17 -2 5 6 34 17 65 20 52 42
166 46 239 5 96 8 94 26 -15 10 -63 21 -144 24 -181z m-525 271 c0 -5 -2 -10
-4 -10 -3 0 -8 5 -11 10 -3 6 -1 10 4 10 6 0 11 -4 11 -10z m17 -12 c-3 -8 -6
-5 -6 6 -1 11 2 17 5 13 3 -3 4 -12 1 -19z m608 -142 c37 -91 53 -142 47 -148
-6 -6 -31 -13 -56 -15 l-46 -6 0 110 c0 61 -3 132 -6 159 -4 27 -4 47 -1 44 3
-3 31 -67 62 -144z m-281 119 c-4 -8 -8 -15 -10 -15 -2 0 -4 7 -4 15 0 8 4 15
10 15 5 0 7 -7 4 -15z m-187 -27 c-3 -8 -6 -5 -6 6 -1 11 2 17 5 13 3 -3 4
-12 1 -19z m596 -45 c6 -9 6 -13 -1 -13 -10 0 -33 53 -31 74 0 6 5 -2 11 -19
6 -16 15 -36 21 -42z m-417 7 c0 -22 -4 -36 -9 -31 -8 8 -1 71 8 71 1 0 2 -18
1 -40z m-299 -62 c-3 -7 -5 -2 -5 12 0 14 2 19 5 13 2 -7 2 -19 0 -25z m110 0
c-3 -7 -5 -2 -5 12 0 14 2 19 5 13 2 -7 2 -19 0 -25z m193 -28 c0 -22 -2 -40
-4 -40 -2 0 -6 18 -8 40 -2 22 0 40 4 40 5 0 8 -18 8 -40z m627 -32 c-2 -13
-4 -5 -4 17 -1 22 1 32 4 23 2 -10 2 -28 0 -40z m-190 0 c-3 -8 -6 -5 -6 6 -1
11 2 17 5 13 3 -3 4 -12 1 -19z m-670 -10 c-3 -8 -6 -5 -6 6 -1 11 2 17 5 13
3 -3 4 -12 1 -19z m685 -20 c-7 -7 -12 -8 -12 -2 0 14 12 26 19 19 2 -3 -1
-11 -7 -17z m-488 -40 c-11 -96 -28 -161 -47 -179 -34 -31 -36 -22 -11 44 13
34 31 88 40 120 8 31 17 57 19 57 3 0 2 -19 -1 -42z m663 -10 c-3 -8 -6 -5 -6
6 -1 11 2 17 5 13 3 -3 4 -12 1 -19z m-932 -27 c-3 -11 -1 -22 5 -26 14 -8 13
-25 -2 -25 -6 0 -8 3 -5 7 4 3 2 12 -3 18 -6 7 -8 20 -4 29 9 23 17 20 9 -3z
m726 7 c0 -7 2 -26 5 -43 2 -16 5 -39 7 -50 1 -11 6 -23 10 -26 5 -4 7 -17 5
-30 -2 -18 -11 -4 -36 56 -38 93 -39 105 -12 105 11 0 20 -6 21 -12z m-31 -96
c19 -53 36 -102 38 -108 4 -15 -32 -24 -49 -13 -12 8 -11 11 1 20 12 8 10 9
-7 4 -15 -4 -23 -2 -23 6 0 8 -18 10 -64 7 l-63 -5 4 71 c6 92 4 88 44 102 76
27 80 24 119 -84z m-656 62 c5 -14 4 -15 -9 -4 -17 14 -19 20 -6 20 5 0 12 -7
15 -16z m477 -62 c-6 -2 -11 -26 -11 -53 l0 -49 -87 -45 c-98 -51 -150 -86
-170 -114 -11 -16 -53 -26 -53 -13 0 11 32 63 37 59 2 -3 0 -14 -6 -25 -23
-43 -10 -35 22 13 27 42 45 56 114 90 45 23 86 45 90 50 4 4 4 6 -2 3 -42 -23
-148 -68 -152 -65 -3 4 28 74 55 126 12 21 135 82 143 70 4 -6 10 -3 15 8 6
14 9 11 12 -17 2 -19 -1 -36 -7 -38z m-498 5 c-7 -13 -10 -13 -23 1 -13 14
-12 15 3 9 10 -4 17 -2 17 5 0 6 3 9 6 5 3 -3 2 -12 -3 -20z m17 -32 c-6 -15
-13 -26 -15 -23 -3 2 1 19 8 37 6 17 13 28 15 23 1 -5 -2 -22 -8 -37z m272
-66 c-19 -42 -42 -74 -65 -92 l-36 -27 13 32 c7 18 17 42 21 53 5 11 7 24 6
29 -1 4 4 15 11 24 15 17 70 53 75 48 2 -2 -9 -32 -25 -67z m487 11 c0 -10 -3
-8 -9 5 -12 27 -12 43 0 25 5 -8 9 -22 9 -30z m-49 -60 c0 -5 -7 -10 -16 -10
-8 0 -12 5 -9 10 3 6 10 10 16 10 5 0 9 -4 9 -10z m-626 -45 c-4 -8 -11 -15
-16 -15 -6 0 -7 -8 -4 -17 4 -10 4 -14 0 -10 -4 4 -25 -28 -46 -70 -21 -43
-36 -69 -34 -58 24 113 32 136 53 159 26 28 56 35 47 11z m240 -81 c27 -26 14
-74 -20 -74 -17 0 -44 28 -44 45 0 15 27 45 40 45 5 0 16 -7 24 -16z m171
-139 c0 -25 -40 -33 -49 -10 -9 24 2 37 27 33 14 -2 22 -10 22 -23z"/>
<path d="M5140 3305 c7 -9 15 -13 17 -11 7 7 -7 26 -19 26 -6 0 -6 -6 2 -15z"/>
<path d="M3272 3180 c-41 -22 -95 -57 -120 -77 -228 -180 -321 -264 -392 -353
-39 -48 -49 -69 -54 -112 -10 -84 19 -266 58 -358 11 -28 11 -37 0 -59 -16
-30 -18 -71 -4 -71 6 0 10 12 11 28 0 15 4 35 8 45 6 17 8 17 25 -2 22 -25 36
-27 36 -6 0 7 6 18 13 22 16 11 47 67 47 87 0 9 5 16 11 16 5 0 7 5 4 10 -3 6
-1 10 4 10 6 0 11 4 11 9 0 5 10 31 22 58 12 26 22 51 23 56 2 4 4 9 5 12 1 3
3 10 4 15 0 6 7 15 15 19 8 5 10 14 6 21 -5 8 -4 11 2 7 5 -3 20 17 32 46 36
85 50 111 71 137 11 14 22 36 25 50 3 14 11 30 18 35 8 6 36 48 63 95 26 47
69 112 94 145 38 51 63 99 73 140 5 23 -43 12 -111 -25z m72 -17 c-15 -27 -41
-68 -58 -93 -116 -171 -241 -370 -298 -472 l-27 -49 -10 38 c-16 55 -13 92 9
142 11 24 20 48 20 55 0 6 25 56 55 111 31 54 54 108 53 119 -2 16 25 39 126
108 71 48 136 88 143 88 10 0 6 -14 -13 -47z m-274 -164 c0 -6 -13 -29 -29
-52 -36 -53 -82 -147 -106 -215 -17 -47 -18 -60 -7 -138 l13 -86 -57 -145
c-54 -139 -57 -144 -75 -127 -52 47 -111 374 -78 437 34 64 149 194 232 261
93 76 107 85 107 65z"/>
<path d="M4696 3060 c3 -14 10 -29 15 -34 14 -16 10 6 -7 34 l-15 25 7 -25z"/>
<path d="M4721 3005 c1 -19 18 -51 18 -35 0 8 -4 22 -9 30 -5 8 -9 11 -9 5z"/>
<path d="M3920 2955 c0 -8 7 -35 15 -60 9 -25 13 -50 10 -55 -3 -6 -3 -10 2
-10 4 0 9 -10 9 -22 4 -73 108 -551 112 -513 1 17 -8 80 -22 140 -21 95 -23
112 -10 125 12 12 14 8 15 -30 0 -29 3 -38 8 -27 4 11 7 -3 8 -35 1 -30 23
-129 51 -228 46 -162 54 -193 67 -259 13 -70 39 -167 46 -176 13 -14 11 15 -7
92 -8 37 -16 98 -17 135 0 38 -5 64 -10 61 -5 -3 -6 7 -2 26 5 26 4 30 -9 25
-9 -3 -16 -1 -16 5 0 6 4 11 9 11 35 0 -107 496 -178 623 -11 21 -21 38 -20
40 0 2 -3 11 -31 90 -22 57 -30 70 -30 42z m117 -367 c-3 -8 -6 -5 -6 6 -1 11
2 17 5 13 3 -3 4 -12 1 -19z m60 -170 c-3 -8 -6 -5 -6 6 -1 11 2 17 5 13 3 -3
4 -12 1 -19z m40 -130 c-3 -8 -6 -5 -6 6 -1 11 2 17 5 13 3 -3 4 -12 1 -19z
m23 -60 c0 -38 -5 -34 -13 10 -4 21 -3 31 3 27 6 -3 10 -20 10 -37z"/>
<path d="M2685 2308 c-9 -30 -35 -195 -34 -218 1 -14 9 21 19 77 10 56 20 114
24 128 6 25 -1 36 -9 13z"/>
<path d="M3710 1989 c-23 -4 -4 -7 58 -8 54 0 107 -7 126 -15 31 -13 33 -13
29 4 -8 29 -110 38 -213 19z"/>
<path d="M3638 1973 c7 -3 16 -2 19 1 4 3 -2 6 -13 5 -11 0 -14 -3 -6 -6z"/>
<path d="M2763 1575 c0 -22 2 -30 4 -17 2 12 2 30 0 40 -3 9 -5 -1 -4 -23z"/>
<path d="M4415 1560 c4 -14 9 -46 12 -72 6 -54 18 -62 28 -20 4 21 -1 41 -20
73 -17 27 -24 35 -20 19z"/>
<path d="M4679 1353 c-7 -13 -42 -42 -76 -65 -34 -23 -61 -44 -59 -46 6 -5
120 65 140 87 10 11 16 26 14 33 -3 9 -9 6 -19 -9z"/>
<path d="M4105 1212 c-12 -12 -3 -22 33 -31 43 -13 188 -13 217 -2 12 5 -15 9
-70 9 -52 0 -108 6 -132 15 -23 8 -45 12 -48 9z"/>
<path d="M3835 800 c-3 -5 -1 -10 4 -10 6 0 11 5 11 10 0 6 -2 10 -4 10 -3 0
-8 -4 -11 -10z"/>
<path d="M6836 2698 c-11 -16 -16 -46 -16 -105 l0 -83 -37 -19 c-39 -21 -24
-29 20 -12 23 9 25 16 32 109 4 54 10 104 13 109 4 6 18 13 32 16 l25 4 -27 2
c-17 1 -32 -7 -42 -21z"/>
<path d="M6545 2430 c-81 -6 -115 -15 -115 -31 0 -4 5 -19 11 -33 10 -20 21
-26 65 -31 29 -4 67 -2 86 3 18 6 66 16 106 23 91 15 110 27 91 57 -12 20 -21
22 -89 20 -41 -1 -111 -5 -155 -8z m225 -10 c8 -5 12 -11 9 -14 -2 -3 -53 -16
-113 -30 -131 -32 -186 -33 -210 -7 -16 18 -16 20 4 34 15 11 52 15 133 16 61
1 113 4 116 7 8 7 45 4 61 -6z"/>
<path d="M6132 2210 c0 -14 2 -19 5 -12 2 6 2 18 0 25 -3 6 -5 1 -5 -13z"/>
<path d="M5750 2170 l-35 -7 35 -1 c19 0 44 3 55 8 l20 9 -20 -1 c-11 0 -36
-4 -55 -8z"/>
<path d="M6136 2139 c-4 -25 -19 -53 -40 -76 l-33 -37 19 -32 c12 -21 15 -34
8 -39 -20 -12 59 -82 109 -96 25 -8 50 -12 55 -11 5 2 26 -4 48 -13 77 -30
128 -14 218 70 44 42 46 43 130 48 67 3 100 11 155 36 38 17 75 29 82 27 9 -4
13 5 13 27 l0 33 -81 -27 c-110 -37 -127 -55 -23 -24 44 12 47 12 29 -1 -52
-39 -188 -59 -277 -41 -35 7 -38 6 -54 -25 -9 -17 -26 -40 -38 -50 -12 -10
-16 -17 -8 -18 15 0 62 45 62 60 0 5 10 10 22 10 19 0 15 -7 -27 -45 -28 -24
-55 -44 -60 -45 -17 0 -16 43 2 62 8 9 13 24 10 33 -11 27 58 48 116 35 26 -5
66 -7 88 -4 68 11 51 21 -27 16 -57 -4 -78 -1 -84 9 -7 10 -13 11 -32 1 -13
-6 -36 -16 -52 -22 -21 -8 -27 -15 -23 -29 3 -11 -8 -38 -24 -63 -28 -41 -28
-43 -9 -46 37 -6 9 -22 -38 -22 -55 0 -97 23 -87 49 4 9 9 36 11 61 2 25 6 57
9 72 2 15 0 30 -4 33 -14 8 -28 -46 -25 -98 3 -50 -15 -72 -39 -48 -8 8 -5 17
11 34 12 13 22 27 22 32 0 5 -13 -7 -30 -25 -16 -18 -30 -37 -30 -42 0 -5 14
-11 30 -14 31 -7 42 -34 14 -34 -8 0 -38 10 -65 21 -65 28 -86 64 -68 117 18
53 37 172 28 177 -3 3 -9 -13 -13 -36z m-26 -113 c-5 -15 -14 -24 -20 -21 -15
9 -12 26 7 47 21 24 27 11 13 -26z"/>
<path d="M6040 1970 c0 -5 5 -10 11 -10 5 0 7 5 4 10 -3 6 -8 10 -11 10 -2 0
-4 -4 -4 -10z"/>
<path d="M2425 1397 c-44 -25 -241 -151 -250 -160 -5 -6 10 1 35 15 116 65
196 112 210 123 8 7 29 17 45 23 28 10 28 10 5 10 -14 0 -34 -5 -45 -11z"/>
<path d="M1542 1206 c-91 -48 -122 -72 -122 -94 0 -7 -6 -28 -14 -45 -23 -51
-37 -128 -31 -158 10 -46 22 -33 22 24 0 29 11 83 25 122 21 61 29 74 71 102
25 17 67 39 93 49 l46 17 64 -66 c35 -37 64 -72 64 -78 0 -6 9 -8 23 -4 102
31 129 40 177 59 64 24 134 60 105 52 -11 -3 -78 -25 -150 -50 l-130 -44 -78
79 c-43 43 -79 79 -80 79 -1 0 -39 -20 -85 -44z"/>
<path d="M2140 1220 c-9 -6 -10 -10 -3 -10 6 0 15 5 18 10 8 12 4 12 -15 0z"/>
<path d="M3450 1226 c0 -2 7 -7 16 -10 8 -3 12 -2 9 4 -6 10 -25 14 -25 6z"/>
<path d="M2531 1161 c-1 -41 4 -60 18 -75 28 -30 71 -120 71 -148 0 -14 -13
-36 -29 -52 l-28 -27 -7 25 c-3 14 -12 26 -18 26 -9 0 -9 -3 0 -12 14 -14 16
-28 4 -28 -11 0 -34 49 -27 59 2 5 -4 16 -15 26 -11 10 -20 26 -20 37 0 10 -4
18 -10 18 -16 0 1 -62 31 -110 37 -61 41 -97 11 -118 -22 -15 -23 -14 -20 4 2
15 -3 19 -27 19 -16 0 -49 4 -72 8 -40 8 -44 7 -73 -26 -20 -23 -43 -37 -68
-42 -20 -4 -55 -21 -77 -39 -22 -18 -51 -39 -65 -46 -52 -28 -211 -6 -310 43
-39 19 -48 29 -64 76 -11 30 -22 49 -24 42 -9 -28 31 -103 71 -132 22 -16 45
-29 52 -29 9 0 11 -20 7 -72 -2 -40 -7 -76 -11 -79 -7 -6 -162 -64 -173 -64
-12 0 -159 147 -169 169 -9 20 -9 19 -5 -4 2 -14 7 -32 10 -41 6 -13 -12 -28
-87 -68 -93 -50 -126 -76 -114 -88 4 -3 14 0 23 8 28 23 187 109 202 109 8 0
41 -25 74 -55 46 -43 65 -54 81 -50 47 13 178 68 183 76 3 5 6 38 8 74 1 35 5
67 8 70 3 3 46 -1 94 -9 99 -17 154 -9 224 32 19 11 52 24 73 27 20 4 40 11
43 16 3 5 38 9 77 9 66 0 77 3 125 35 28 20 53 41 53 48 1 6 2 17 3 23 0 6 21
30 44 54 34 32 42 47 38 63 -4 12 -9 42 -13 67 -4 28 -16 57 -34 77 -25 29
-48 71 -62 113 -3 8 -6 -9 -6 -39z m89 -123 c0 -16 -17 -7 -28 15 -7 12 -19
33 -29 47 -9 14 0 7 20 -15 20 -22 37 -43 37 -47z m-216 -246 c2 -4 -6 -9 -20
-10 -13 -1 -24 3 -24 8 0 12 37 14 44 2z m41 -32 c-3 -5 -18 -10 -33 -10 -21
0 -24 2 -12 10 20 13 53 13 45 0z m-80 -10 c3 -5 1 -10 -4 -10 -6 0 -11 5 -11
10 0 6 2 10 4 10 3 0 8 -4 11 -10z m-65 -20 c0 -5 -7 -10 -15 -10 -8 0 -15 5
-15 10 0 6 7 10 15 10 8 0 15 -4 15 -10z"/>
<path d="M2155 1180 c3 -5 11 -10 16 -10 6 0 7 5 4 10 -3 6 -11 10 -16 10 -6
0 -7 -4 -4 -10z"/>
<path d="M2100 1169 c0 -5 5 -7 10 -4 6 3 10 8 10 11 0 2 -4 4 -10 4 -5 0 -10
-5 -10 -11z"/>
<path d="M2169 1142 c-8 -20 -111 -81 -146 -87 -43 -7 -80 -25 -52 -25 34 0
120 32 141 53 13 12 34 29 48 38 14 9 22 20 19 24 -4 3 -9 2 -10 -3z"/>
<path d="M1940 1090 c-9 -6 -10 -10 -3 -10 6 0 15 5 18 10 8 12 4 12 -15 0z"/>
<path d="M1884 1065 c-10 -8 -14 -14 -9 -14 6 0 19 6 29 14 11 8 15 15 10 15
-6 0 -19 -7 -30 -15z"/>
<path d="M1720 1060 c-9 -6 -10 -10 -3 -10 6 0 15 5 18 10 8 12 4 12 -15 0z"/>
<path d="M1840 1027 c0 -10 8 -17 18 -17 9 0 13 4 7 8 -5 4 -13 11 -17 16 -5
5 -8 2 -8 -7z"/>
<path d="M1915 1030 c-13 -6 -15 -9 -5 -9 8 0 22 4 30 9 18 12 2 12 -25 0z"/>
<path d="M1540 1016 c0 -7 -20 -21 -44 -30 -25 -9 -50 -24 -58 -33 -7 -9 -8
-14 -3 -11 6 2 34 15 63 28 35 16 52 30 52 42 0 10 -2 18 -5 18 -3 0 -5 -6 -5
-14z"/>
<path d="M3230 943 c0 -12 67 -75 105 -97 33 -20 28 -15 -52 59 -29 26 -53 44
-53 38z"/>
<path d="M1733 903 c3 -10 8 -35 11 -55 7 -40 45 -132 52 -125 2 2 -7 34 -21
71 -14 36 -25 80 -25 96 0 17 -5 30 -11 30 -6 0 -8 -8 -6 -17z"/>
<path d="M1323 895 c-18 -8 -33 -21 -33 -30 0 -14 3 -14 31 2 33 19 57 43 43
43 -5 -1 -24 -7 -41 -15z"/>
<path d="M3410 906 c0 -2 8 -10 18 -17 15 -13 16 -12 3 4 -13 16 -21 21 -21
13z"/>
<path d="M3465 861 c19 -22 55 -46 55 -38 0 3 -17 17 -37 33 -31 23 -34 24
-18 5z"/>
<path d="M1443 748 c3 -9 9 -33 13 -52 3 -20 10 -38 14 -41 10 -6 -16 94 -26
104 -4 3 -4 -2 -1 -11z"/>
<path d="M1587 655 c-20 -14 -37 -28 -37 -31 0 -3 13 4 29 15 16 12 34 21 39
21 6 0 14 5 17 10 11 17 -9 11 -48 -15z"/>
<path d="M4788 640 c-35 -35 -37 -38 -26 -73 12 -40 22 -40 75 2 37 29 38 35
21 74 -18 38 -29 38 -70 -3z"/>
<path d="M3692 665 c7 -21 59 -115 63 -115 11 0 3 17 -31 70 -19 30 -34 51
-32 45z"/>
<path d="M1608 617 c-16 -13 -28 -26 -28 -30 0 -8 70 -73 102 -96 16 -11 28
-11 59 -2 21 7 39 18 39 25 0 17 -116 126 -133 126 -7 -1 -24 -11 -39 -23z
m104 -46 c29 -28 49 -53 45 -57 -4 -4 -30 14 -57 41 -39 38 -53 46 -62 37 -13
-13 -38 -16 -38 -4 0 7 36 28 53 31 4 0 31 -21 59 -48z"/>
<path d="M5210 591 c40 -20 71 -27 115 -28 l60 -1 -58 9 c-32 4 -78 18 -104
29 -67 30 -77 23 -13 -9z"/>
<path d="M5140 591 c0 -5 16 -19 35 -31 19 -12 56 -39 82 -61 26 -21 56 -39
65 -39 10 0 26 -4 36 -10 27 -15 124 -51 128 -47 2 2 -43 23 -101 47 -58 23
-108 47 -111 52 -5 8 -94 76 -121 92 -7 4 -13 3 -13 -3z"/>
<path d="M3771 560 c0 -14 4 -34 9 -45 8 -18 9 -18 9 5 0 14 -4 34 -9 45 -8
18 -9 18 -9 -5z"/>
<path d="M5403 553 c9 -2 25 -2 35 0 9 3 1 5 -18 5 -19 0 -27 -2 -17 -5z"/>
<path d="M5473 543 c9 -2 25 -2 35 0 9 3 1 5 -18 5 -19 0 -27 -2 -17 -5z"/>
<path d="M5548 533 c6 -2 18 -2 25 0 6 3 1 5 -13 5 -14 0 -19 -2 -12 -5z"/>
<path d="M5628 523 c7 -3 16 -2 19 1 4 3 -2 6 -13 5 -11 0 -14 -3 -6 -6z"/>
<path d="M5693 513 c9 -2 25 -2 35 0 9 3 1 5 -18 5 -19 0 -27 -2 -17 -5z"/>
<path d="M4333 474 c3 -20 9 -39 12 -43 7 -6 104 -6 110 1 3 2 2 21 -2 41 l-6
37 -60 0 -60 0 6 -36z"/>
<path d="M5783 503 c9 -2 23 -2 30 0 6 3 -1 5 -18 5 -16 0 -22 -2 -12 -5z"/>
<path d="M5858 493 c7 -3 16 -2 19 1 4 3 -2 6 -13 5 -11 0 -14 -3 -6 -6z"/>
<path d="M4092 465 c-17 -37 -14 -45 4 -12 9 16 14 31 11 33 -2 2 -9 -7 -15
-21z"/>
<path d="M5898 483 c6 -2 18 -2 25 0 6 3 1 5 -13 5 -14 0 -19 -2 -12 -5z"/>
<path d="M5955 470 c27 -12 43 -12 25 0 -8 5 -22 9 -30 9 -10 0 -8 -3 5 -9z"/>
<circle cx="420.9" cy="296.5" r="45.7"/>
</g>
</svg>
